<svg width="24" height="23" viewBox="0 0 24 23" fill="none" xmlns="http://www.w3.org/2000/svg">
<g filter="url(#filter0_d_613_4596)">
<path d="M2.32032 9.27186C2.54179 7.41473 3.30139 5.66287 4.50563 4.23186C4.63888 4.07119 4.80419 3.94009 4.991 3.84696C5.17781 3.75382 5.382 3.7007 5.59051 3.691C5.79902 3.68129 6.00726 3.71521 6.20192 3.79059C6.39657 3.86596 6.57335 3.98114 6.72094 4.12874L9.31501 6.77811C9.56483 7.02736 9.71792 7.3573 9.74695 7.70901C9.77597 8.06071 9.67903 8.41128 9.47344 8.69811C9.31772 8.91903 9.20044 9.16468 9.12657 9.42468C9.1031 9.50139 9.05566 9.56855 8.9912 9.61631C8.92674 9.66406 8.84866 9.68989 8.76844 9.68999L2.69344 9.68999C2.64051 9.69007 2.58815 9.67895 2.53982 9.65735C2.49149 9.63575 2.44828 9.60417 2.41304 9.56467C2.37779 9.52517 2.35131 9.47866 2.33533 9.42819C2.31935 9.37773 2.31423 9.32445 2.32032 9.27186ZM12.8803 0.695613C12.6731 0.677545 12.4645 0.702759 12.2675 0.769652C12.0706 0.836545 11.8898 0.943657 11.7364 1.08418C11.5831 1.22471 11.4607 1.39558 11.377 1.58595C11.2932 1.77632 11.25 1.98202 11.25 2.18999V6.0028C11.2474 6.35659 11.3711 6.69972 11.5987 6.97053C11.8264 7.24134 12.1432 7.42209 12.4922 7.4803C13.1493 7.58871 13.7517 7.91271 14.2044 8.40123C14.6571 8.88976 14.9343 9.51503 14.9924 10.1785C15.0505 10.842 14.8862 11.5059 14.5254 12.0657C14.1645 12.6255 13.6277 13.0493 12.9994 13.2703C12.9263 13.2972 12.8631 13.3458 12.8185 13.4097C12.7739 13.4736 12.75 13.5496 12.75 13.6275L12.75 19.7428C12.7497 19.7959 12.7606 19.8485 12.7821 19.897C12.8035 19.9456 12.8351 19.989 12.8746 20.0245C12.9141 20.0599 12.9608 20.0866 13.0113 20.1027C13.0619 20.1187 13.1154 20.1239 13.1681 20.1178C15.508 19.8289 17.6648 18.7047 19.2416 16.952C20.8185 15.1993 21.7092 12.936 21.75 10.5787C21.8203 5.48905 17.9241 1.14749 12.8803 0.695613ZM10.9922 13.2675C10.573 13.1179 10.1923 12.877 9.87769 12.5621C9.56311 12.2472 9.32255 11.8662 9.17344 11.4469C9.14788 11.3725 9.0999 11.3079 9.03611 11.2619C8.97231 11.2159 8.89584 11.1908 8.81719 11.19L2.69251 11.19C2.6395 11.1897 2.58703 11.2006 2.53854 11.222C2.49006 11.2434 2.44667 11.2749 2.41123 11.3143C2.3758 11.3537 2.34912 11.4002 2.33297 11.4507C2.31681 11.5012 2.31154 11.5545 2.31751 11.6072C2.58011 13.7741 3.5616 15.7905 5.10508 17.334C6.64856 18.8775 8.66492 19.8589 10.8319 20.1216C10.8846 20.1275 10.9379 20.1222 10.9884 20.1061C11.0389 20.0899 11.0853 20.0633 11.1248 20.0278C11.1642 19.9924 11.1956 19.949 11.2171 19.9005C11.2385 19.852 11.2494 19.7996 11.2491 19.7466L11.2491 13.6275C11.2492 13.5482 11.2245 13.4708 11.1785 13.4062C11.1324 13.3417 11.0672 13.2931 10.9922 13.2675Z" fill="#B3B3B3"/>
</g>
<defs>
<filter id="filter0_d_613_4596" x="-1.68488" y="0.689941" width="27.4358" height="27.434" filterUnits="userSpaceOnUse" color-interpolation-filters="sRGB">
<feFlood flood-opacity="0" result="BackgroundImageFix"/>
<feColorMatrix in="SourceAlpha" type="matrix" values="0 0 0 0 0 0 0 0 0 0 0 0 0 0 0 0 0 0 127 0" result="hardAlpha"/>
<feOffset dy="4"/>
<feGaussianBlur stdDeviation="2"/>
<feComposite in2="hardAlpha" operator="out"/>
<feColorMatrix type="matrix" values="0 0 0 0 0 0 0 0 0 0 0 0 0 0 0 0 0 0 0.25 0"/>
<feBlend mode="normal" in2="BackgroundImageFix" result="effect1_dropShadow_613_4596"/>
<feBlend mode="normal" in="SourceGraphic" in2="effect1_dropShadow_613_4596" result="shape"/>
</filter>
</defs>
</svg>
