<svg width="20" height="20" viewBox="0 0 20 20" fill="none" xmlns="http://www.w3.org/2000/svg">
<path d="M14 5.49998L14 14.5C14 14.6989 13.921 14.8897 13.7803 15.0303C13.6397 15.171 13.4489 15.25 13.25 15.25H11L11 19C11.0001 19.1484 10.9562 19.2935 10.8738 19.417C10.7914 19.5404 10.6742 19.6366 10.5371 19.6934C10.4 19.7503 10.2491 19.7651 10.1035 19.7361C9.95794 19.7071 9.82425 19.6356 9.71935 19.5306L0.719355 10.5306C0.649622 10.461 0.594303 10.3782 0.55656 10.2872C0.518817 10.1961 0.49939 10.0985 0.49939 9.99998C0.49939 9.90142 0.518817 9.80383 0.55656 9.71278C0.594303 9.62173 0.649622 9.53901 0.719355 9.46936L9.71935 0.469355C9.82425 0.364347 9.95794 0.292821 10.1035 0.263833C10.2491 0.234846 10.4 0.249699 10.5371 0.306513C10.6742 0.363328 10.7914 0.459548 10.8738 0.582994C10.9562 0.706439 11.0001 0.851559 11 0.99998V4.74998H13.25C13.4489 4.74998 13.6397 4.829 13.7803 4.96965C13.921 5.1103 14 5.30107 14 5.49998ZM16.25 4.74998C16.0511 4.74998 15.8603 4.829 15.7196 4.96965C15.579 5.1103 15.5 5.30107 15.5 5.49998L15.5 14.5C15.5 14.6989 15.579 14.8897 15.7196 15.0303C15.8603 15.171 16.0511 15.25 16.25 15.25C16.4489 15.25 16.6397 15.171 16.7803 15.0303C16.921 14.8897 17 14.6989 17 14.5L17 5.49998C17 5.30107 16.921 5.1103 16.7803 4.96965C16.6397 4.829 16.4489 4.74998 16.25 4.74998ZM19.25 4.74998C19.0511 4.74998 18.8603 4.829 18.7196 4.96965C18.579 5.1103 18.5 5.30107 18.5 5.49998L18.5 14.5C18.5 14.6989 18.579 14.8897 18.7196 15.0303C18.8603 15.171 19.0511 15.25 19.25 15.25C19.4489 15.25 19.6397 15.171 19.7803 15.0303C19.921 14.8897 20 14.6989 20 14.5L20 5.49998C20 5.30107 19.921 5.1103 19.7803 4.96965C19.6397 4.829 19.4489 4.74998 19.25 4.74998Z" fill="#B3B3B3"/>
</svg>
