<svg width="24" height="25" viewBox="0 0 24 25" fill="none" xmlns="http://www.w3.org/2000/svg">
<path d="M21 11.2727L21 19.9399C21 20.3378 20.842 20.7193 20.5607 21.0006C20.2794 21.2819 19.8978 21.4399 19.5 21.4399H15.75C15.3522 21.4399 14.9706 21.2819 14.6893 21.0006C14.408 20.7193 14.25 20.3378 14.25 19.9399L14.25 16.1899C14.25 15.991 14.171 15.8003 14.0303 15.6596C13.8897 15.519 13.6989 15.4399 13.5 15.4399H10.5C10.3011 15.4399 10.1103 15.519 9.96967 15.6596C9.82902 15.8003 9.75 15.991 9.75 16.1899L9.75 19.9399C9.75 20.3378 9.59196 20.7193 9.31066 21.0006C9.02936 21.2819 8.64782 21.4399 8.25 21.4399H4.5C4.10218 21.4399 3.72064 21.2819 3.43934 21.0006C3.15804 20.7193 3 20.3378 3 19.9399L3 11.2727C2.99997 11.0651 3.04303 10.8598 3.12646 10.6697C3.20989 10.4796 3.33187 10.3089 3.48469 10.1684L10.9847 3.09212L10.995 3.08181C11.2711 2.83068 11.631 2.69153 12.0042 2.69153C12.3775 2.69153 12.7373 2.83068 13.0134 3.08181C13.0166 3.08548 13.0201 3.08892 13.0237 3.09212L20.5237 10.1684C20.675 10.3096 20.7954 10.4807 20.8774 10.6707C20.9594 10.8608 21.0011 11.0658 21 11.2727Z" fill="#B3B3B3"/>
</svg>
